<svg width="160" height="160" viewBox="0 0 160 160" fill="none" xmlns="http://www.w3.org/2000/svg">
  <defs>
    <linearGradient id="bg" x1="16" y1="12" x2="144" y2="148" gradientUnits="userSpaceOnUse">
      <stop stop-color="#00A884"/>
      <stop offset="1" stop-color="#075E54"/>
    </linearGradient>
    <linearGradient id="shirt" x1="80" y1="86" x2="80" y2="140" gradientUnits="userSpaceOnUse">
      <stop stop-color="#E0F2FE"/>
      <stop offset="1" stop-color="#BAE6FD"/>
    </linearGradient>
  </defs>

  <rect width="160" height="160" rx="80" fill="url(#bg)"/>

  <circle cx="80" cy="68" r="27" fill="#FDE68A"/>
  <path d="M44 138C48 114 61 100 80 100C99 100 112 114 116 138" fill="url(#shirt)"/>

  <path d="M53 70C53 54 66 42 82 42C96 42 107 53 107 67" stroke="#1F2937" stroke-width="6" stroke-linecap="round"/>
  <rect x="45" y="69" width="11" height="20" rx="5.5" fill="#111827"/>
  <rect x="104" y="69" width="11" height="20" rx="5.5" fill="#111827"/>
  <rect x="70" y="86" width="20" height="7" rx="3.5" fill="#111827"/>
  <circle cx="73" cy="67" r="3" fill="#111827"/>
  <circle cx="87" cy="67" r="3" fill="#111827"/>
  <path d="M72 78C74.5 81 85.5 81 88 78" stroke="#B45309" stroke-width="2.5" stroke-linecap="round"/>

  <circle cx="123" cy="123" r="23" fill="#25D366" stroke="#DCFCE7" stroke-width="3"/>
  <path d="M113 123L120 129L134 116" stroke="#FFFFFF" stroke-width="4" stroke-linecap="round" stroke-linejoin="round"/>
</svg>
