<?xml version="1.0" standalone="no"?>
<!DOCTYPE svg PUBLIC "-//W3C//DTD SVG 20010904//EN"
 "http://www.w3.org/TR/2001/REC-SVG-20010904/DTD/svg10.dtd">
<svg version="1.0" xmlns="http://www.w3.org/2000/svg"
 width="2000.000000pt" height="2000.000000pt" viewBox="0 0 2000.000000 2000.000000"
 preserveAspectRatio="xMidYMid meet">

<g transform="translate(0.000000,2000.000000) scale(0.100000,-0.100000)"
fill="#000000" stroke="none">
<path d="M3530 13823 c-68 -35 -74 -82 -30 -257 35 -142 40 -234 12 -260 -18
-15 -21 -15 -44 4 -14 11 -50 57 -78 102 -76 120 -116 147 -171 117 -20 -10
-20 -9 -14 83 7 104 5 104 -49 -2 -77 -149 -351 -828 -340 -839 20 -21 176
169 239 290 47 91 115 280 115 320 0 13 29 -34 66 -109 l67 -133 -10 -72 c-14
-94 -42 -166 -98 -251 -25 -38 -45 -72 -45 -76 0 -4 21 -13 48 -20 26 -7 81
-28 121 -47 l75 -34 58 58 58 58 198 1 c177 1 230 7 284 29 15 6 14 0 -3 -67
-11 -40 -29 -129 -40 -198 -24 -145 -36 -163 -142 -220 l-64 -34 23 -66 c13
-37 29 -100 36 -141 6 -41 13 -76 14 -78 2 -2 37 11 78 28 104 43 187 61 289
61 104 0 131 -11 226 -94 56 -49 69 -56 120 -61 31 -4 80 -11 110 -16 75 -12
78 -12 84 12 13 50 -5 81 -103 178 -54 53 -101 106 -104 119 -11 32 10 52 53
52 56 0 105 -17 245 -83 181 -85 257 -89 299 -17 28 46 22 91 -15 127 -37 35
-111 74 -176 93 -23 8 -48 20 -54 27 -23 28 17 75 119 143 124 82 194 154 238
244 63 128 81 287 41 365 -46 88 -170 94 -240 11 -40 -49 -68 -109 -126 -275
-58 -166 -95 -234 -149 -271 -40 -27 -97 -32 -126 -10 -35 25 -23 80 46 214
49 94 63 133 63 163 -3 99 -101 107 -182 15 -57 -66 -116 -160 -202 -326 -67
-129 -90 -166 -107 -168 -50 -7 -66 85 -49 284 8 96 8 102 -13 123 -33 33 -84
24 -122 -23 -16 -20 -18 -20 -36 -3 -14 12 -55 21 -136 32 -157 19 -234 59
-189 98 9 8 55 24 102 37 232 61 390 126 430 178 27 34 26 78 -2 96 -44 28
-71 28 -168 -4 -99 -31 -187 -39 -208 -18 -21 21 -14 74 13 106 41 49 99 70
251 91 182 26 231 37 278 64 54 30 79 67 79 116 0 82 -67 131 -190 139 -162
10 -276 -36 -416 -167 -137 -129 -157 -130 -177 -6 -24 153 -78 209 -160 168z"/>
<path d="M16108 12728 c-66 -6 -118 -19 -220 -57 -217 -80 -336 -101 -673
-121 -99 -6 -227 -18 -285 -26 -189 -28 -349 -106 -470 -228 l-54 -56 34 10
c51 15 239 12 317 -4 87 -19 215 -59 289 -92 150 -66 390 -272 464 -398 46
-78 79 -179 80 -239 l0 -48 28 15 c41 21 144 133 196 213 25 39 79 134 118
210 61 115 85 150 144 209 85 85 197 146 354 194 127 39 210 76 312 137 l77
46 -33 43 c-18 24 -39 63 -46 87 l-12 45 -136 21 c-275 42 -362 50 -484 39z"/>
<path d="M1385 12308 c-109 -39 -185 -146 -185 -259 0 -143 113 -262 263 -275
105 -9 199 40 255 134 24 42 27 57 27 137 0 80 -3 95 -27 136 -54 92 -135 139
-238 138 -36 0 -78 -5 -95 -11z"/>
<path d="M2545 12175 c-22 -8 -52 -28 -67 -44 -126 -140 43 -351 207 -258 130
73 103 266 -43 307 -46 12 -48 12 -97 -5z m39 -70 c42 -42 20 -105 -36 -105
-59 0 -89 60 -51 102 20 22 66 24 87 3z m128 -13 c53 -46 22 -154 -54 -191
-61 -29 -103 -28 -124 4 -15 23 -15 27 0 49 9 14 37 34 62 45 l47 21 -7 42
c-10 59 27 74 76 30z"/>
<path d="M16960 12059 c-19 -12 -67 -52 -106 -89 -116 -110 -153 -112 -293
-16 -50 34 -93 56 -109 56 -40 0 -72 -26 -72 -58 1 -60 73 -192 192 -355 28
-37 49 -69 47 -71 -2 -2 -63 -15 -135 -29 -245 -49 -478 -132 -669 -239 -71
-40 -190 -114 -214 -134 -8 -7 24 -36 59 -54 56 -28 100 -33 150 -16 24 8 46
13 48 11 10 -10 -52 -96 -98 -138 -94 -85 -209 -125 -379 -134 l-104 -6 38
-22 c32 -20 213 -100 269 -119 18 -6 18 -8 -5 -33 l-24 -26 35 7 c189 33 720
43 960 18 492 -51 953 -169 1235 -316 33 -17 64 -33 69 -35 13 -5 0 218 -19
317 -66 348 -281 662 -587 860 -48 30 -86 57 -84 59 1 2 37 12 78 22 190 49
328 166 328 279 0 60 -15 67 -144 67 -103 0 -114 2 -157 27 -26 15 -83 62
-127 103 -94 88 -126 99 -182 64z m-237 -565 c69 -18 241 -24 351 -11 l70 8
-19 -21 c-10 -11 -50 -36 -88 -55 -60 -30 -79 -35 -142 -35 -60 0 -82 5 -131
30 -55 27 -161 121 -121 107 10 -4 46 -14 80 -23z"/>
<path d="M14411 11714 c-26 -33 -29 -102 -4 -111 29 -11 65 42 61 91 -4 50
-27 59 -57 20z"/>
<path d="M4610 11685 c-234 -37 -529 -138 -750 -257 -110 -59 -260 -151 -260
-159 0 -7 101 -47 170 -68 143 -42 397 -54 551 -26 263 49 510 181 726 389 60
57 106 106 103 109 -26 27 -391 35 -540 12z"/>
<path d="M12134 11030 c-100 -20 -202 -99 -252 -195 -24 -44 -27 -61 -27 -146
l0 -95 -505 -12 c-2297 -56 -5055 -248 -7640 -533 -359 -39 -350 -38 -350 -60
0 -23 -6 -22 150 -4 587 69 1613 170 2575 255 380 33 1254 101 1685 130 85 6
218 15 295 20 352 24 988 61 1465 85 980 48 2348 91 2366 73 9 -10 -11 -14
-271 -52 -781 -117 -1497 -210 -2305 -301 -1074 -120 -2307 -221 -2929 -240
-107 -3 -235 -10 -285 -15 -203 -20 -925 -33 -1552 -27 -575 5 -758 11 -1090
33 -99 6 -102 6 -109 -16 -4 -12 -5 -23 -3 -25 8 -8 440 -26 893 -36 372 -8
641 -8 1050 0 808 17 927 21 1070 31 72 6 274 19 450 30 1491 94 3104 269
4700 510 211 32 280 46 319 65 62 31 77 31 106 0 l23 -25 -55 0 c-109 0 -231
-87 -258 -186 -28 -98 8 -233 84 -321 43 -50 155 -108 235 -123 50 -9 181 -14
181 -7 0 2 -9 39 -20 83 -59 226 -22 447 98 585 34 39 40 53 51 129 15 104 62
248 102 313 16 26 29 51 29 56 0 24 -188 38 -276 21z m-44 -611 c0 -6 -4 -7
-10 -4 -5 3 -10 11 -10 16 0 6 5 7 10 4 6 -3 10 -11 10 -16z"/>
<path d="M12882 10760 c-45 -32 -85 -86 -103 -138 -11 -31 -9 -36 19 -65 29
-31 62 -87 62 -105 0 -6 -17 -13 -37 -17 -114 -21 -162 -99 -163 -260 0 -148
48 -347 143 -597 24 -62 24 -67 9 -80 -79 -67 -306 -54 -474 27 l-48 23 -40
-51 c-83 -104 -130 -242 -150 -439 -23 -238 43 -666 141 -906 96 -236 275
-439 512 -580 143 -85 144 -85 189 -15 111 175 198 372 371 833 361 965 500
1245 744 1501 168 175 343 302 572 415 l125 62 -65 20 c-227 70 -417 53 -739
-66 -178 -66 -229 -75 -390 -74 -147 1 -328 31 -451 74 -63 23 -64 24 -72 68
-4 25 -7 118 -5 207 l4 161 -41 12 c-22 6 -47 13 -56 16 -9 2 -34 -9 -57 -26z"/>
<path d="M15910 10359 c-238 -17 -590 -75 -720 -119 -30 -10 -84 -26 -120 -35
-36 -9 -117 -37 -180 -62 -447 -176 -753 -427 -947 -773 -54 -95 -130 -287
-278 -698 -351 -978 -583 -1387 -918 -1622 -133 -92 -238 -120 -482 -127 -163
-5 -210 -2 -333 16 -581 88 -878 364 -798 741 8 36 45 140 84 230 197 467 251
714 207 947 -41 218 -221 410 -448 477 -61 18 -226 19 -292 1 -145 -38 -294
-126 -357 -210 -146 -194 -78 -471 141 -578 61 -29 74 -32 166 -32 92 0 105 3
167 33 128 62 203 177 217 332 l6 75 20 -50 c31 -78 28 -220 -7 -303 -62 -149
-143 -246 -372 -446 -223 -196 -311 -314 -376 -506 -62 -183 -73 -493 -25
-682 48 -186 171 -342 353 -445 35 -19 61 -40 59 -47 -9 -28 -132 -113 -242
-166 -177 -87 -450 -170 -559 -170 -106 0 -575 105 -712 160 -356 142 -665
494 -757 859 -31 124 -30 315 1 425 38 134 105 249 197 342 231 233 564 298
834 163 178 -89 286 -251 298 -449 12 -206 -81 -406 -222 -475 -171 -84 -403
-2 -459 163 -9 25 -14 47 -12 49 2 2 16 -7 32 -22 66 -61 224 -72 328 -21 65
32 109 80 145 156 35 75 36 182 1 255 -91 189 -333 258 -547 154 -222 -107
-313 -472 -182 -732 46 -89 154 -194 249 -240 105 -51 187 -70 300 -70 184 1
313 54 435 177 134 136 193 285 202 514 10 241 -34 403 -153 561 -96 128 -282
245 -464 291 -106 27 -299 37 -396 21 -215 -37 -408 -136 -572 -295 -347 -336
-414 -865 -171 -1349 128 -254 371 -506 631 -653 226 -128 609 -227 1213 -314
804 -114 1763 -221 3005 -335 1115 -101 2562 -215 2742 -215 371 0 662 145
779 386 93 193 52 324 -98 312 -65 -6 -104 -38 -123 -101 -31 -108 -109 -200
-212 -251 l-51 -25 -99 51 c-136 69 -348 224 -348 253 0 6 32 23 71 39 176 71
380 254 521 466 288 434 486 1089 608 2020 17 129 38 268 46 309 28 137 95
294 177 416 47 70 173 198 237 242 l45 31 0 -92 c0 -82 3 -96 30 -145 56 -100
170 -162 305 -164 157 -2 263 63 328 203 32 67 36 86 40 182 4 95 2 117 -21
190 -87 277 -355 501 -762 636 -367 122 -913 177 -1405 141z m-4776 -3974 c72
-9 1049 -114 2171 -235 1122 -121 2049 -221 2059 -222 12 -2 35 -30 60 -73 27
-46 82 -111 158 -187 l117 -118 -37 0 c-158 0 -2487 195 -3352 280 -623 62
-1732 190 -1780 206 -8 3 16 21 60 45 41 23 105 63 142 91 66 49 218 201 218
219 0 12 32 11 184 -6z"/>
<path d="M2017 10088 c38 -41 50 -63 62 -119 9 -41 3 -101 -13 -140 -6 -14 3
-18 61 -23 37 -4 85 -9 106 -12 l37 -6 0 60 c0 66 17 114 55 160 l26 31 -48 5
c-127 16 -239 38 -276 56 l-41 20 31 -32z"/>
<path d="M3186 10087 c-10 -7 -21 -28 -25 -47 -6 -30 -19 -41 -119 -102 -62
-37 -117 -68 -122 -68 -15 0 -24 43 -23 110 l1 65 -124 -3 c-68 -2 -124 -5
-124 -8 0 -3 11 -17 25 -32 38 -41 57 -102 53 -166 l-3 -56 129 0 130 0 -29
30 c-16 16 -27 31 -24 33 2 2 58 36 124 75 78 47 123 68 129 62 17 -17 62 -11
81 10 24 27 22 70 -5 92 -26 21 -49 23 -74 5z"/>
<path d="M1895 10026 c-9 -14 -15 -32 -13 -42 2 -13 -28 -36 -114 -88 -110
-66 -135 -86 -107 -86 6 0 60 29 119 65 100 60 112 65 150 59 49 -8 80 14 80
56 0 58 -84 84 -115 36z"/>
<path d="M2547 9962 c-10 -10 -17 -30 -17 -44 0 -22 -17 -36 -120 -97 -66 -40
-118 -77 -115 -82 4 -5 9 -8 13 -6 4 2 57 33 117 70 103 61 113 65 156 60 40
-5 48 -2 63 18 21 31 20 55 -4 79 -25 25 -72 26 -93 2z"/>
<path d="M11724 9565 c-138 -30 -226 -107 -271 -236 -13 -38 -12 -42 16 -82
107 -157 162 -346 162 -567 0 -203 -26 -333 -117 -583 l-55 -150 47 -81 c26
-45 66 -105 88 -135 23 -30 67 -90 100 -133 l58 -80 -30 -31 c-39 -40 -52 -75
-52 -138 0 -105 23 -126 183 -168 172 -45 469 -54 602 -17 85 23 211 87 275
141 64 53 70 64 40 72 -44 12 -196 91 -265 138 -38 26 -78 48 -88 47 -9 0 -24
11 -31 26 -8 15 -32 40 -53 57 -93 73 -235 211 -286 277 -221 293 -350 737
-334 1158 8 209 31 314 104 488 6 15 -13 14 -93 -3z"/>
</g>
</svg>
